<svg width="90" height="90" viewBox="0 0 90 90" fill="none" xmlns="http://www.w3.org/2000/svg">
<g filter="url(#filter0_d_69_14853)">
<circle cx="45" cy="40" r="32" fill="white"/>
</g>
<path d="M38.2775 42.4309L32.5287 37.3948L27 42.9526M51.7225 37.5674L57.4713 42.6034L63 37.0457M39.7861 29.1973C41.9652 28.2198 44.3741 27.8288 46.7391 28.0687C49.1042 28.3086 51.3305 29.1698 53.1652 30.5545C54.9998 31.9391 56.3691 33.7916 57.1175 35.9015C57.866 38.0114 57.9635 40.2941 57.399 42.4902M50.2151 50.802C48.0358 51.7799 45.6266 52.1711 43.2612 51.9314C40.8959 51.6916 38.6692 50.8303 36.8343 49.4455C34.9995 48.0607 33.6301 46.2079 32.8817 44.0976C32.1334 41.9874 32.0361 39.7044 32.601 37.5081" stroke="black" stroke-width="2" stroke-linecap="round" stroke-linejoin="round"/>
<defs>
<filter id="filter0_d_69_14853" x="0" y="0" width="90" height="90" filterUnits="userSpaceOnUse" color-interpolation-filters="sRGB">
<feFlood flood-opacity="0" result="BackgroundImageFix"/>
<feColorMatrix in="SourceAlpha" type="matrix" values="0 0 0 0 0 0 0 0 0 0 0 0 0 0 0 0 0 0 127 0" result="hardAlpha"/>
<feOffset dy="5"/>
<feGaussianBlur stdDeviation="6.5"/>
<feComposite in2="hardAlpha" operator="out"/>
<feColorMatrix type="matrix" values="0 0 0 0 0.752941 0 0 0 0 0.792157 0 0 0 0 0.839216 0 0 0 0.5 0"/>
<feBlend mode="normal" in2="BackgroundImageFix" result="effect1_dropShadow_69_14853"/>
<feBlend mode="normal" in="SourceGraphic" in2="effect1_dropShadow_69_14853" result="shape"/>
</filter>
</defs>
</svg>
