<svg width="114" height="114" viewBox="0 0 114 114" fill="none" xmlns="http://www.w3.org/2000/svg">
<g filter="url(#filter0_d_69_14849)">
<circle cx="57" cy="52" r="44" fill="white"/>
</g>
<path d="M47.4385 55.6846L39.2625 48.0523L31.3996 56.4752M66.5599 48.3138L74.7358 55.9461L82.5987 47.5232M49.584 35.6287C52.683 34.1473 56.109 33.5547 59.4726 33.9182C62.8362 34.2818 66.0025 35.587 68.6117 37.6855C71.2208 39.7839 73.1683 42.5915 74.2327 45.7891C75.2971 48.9868 75.4358 52.4462 74.633 55.7744M64.416 68.3712C61.3168 69.8533 57.8904 70.4463 54.5263 70.0829C51.1623 69.7195 47.9955 68.4142 45.386 66.3155C42.7765 64.2167 40.8289 61.4087 39.7646 58.2106C38.7003 55.0124 38.562 51.5525 39.3654 48.224" stroke="black" stroke-width="2" stroke-linecap="round" stroke-linejoin="round"/>
<defs>
<filter id="filter0_d_69_14849" x="0" y="0" width="114" height="114" filterUnits="userSpaceOnUse" color-interpolation-filters="sRGB">
<feFlood flood-opacity="0" result="BackgroundImageFix"/>
<feColorMatrix in="SourceAlpha" type="matrix" values="0 0 0 0 0 0 0 0 0 0 0 0 0 0 0 0 0 0 127 0" result="hardAlpha"/>
<feOffset dy="5"/>
<feGaussianBlur stdDeviation="6.5"/>
<feComposite in2="hardAlpha" operator="out"/>
<feColorMatrix type="matrix" values="0 0 0 0 0.752941 0 0 0 0 0.792157 0 0 0 0 0.839216 0 0 0 0.5 0"/>
<feBlend mode="normal" in2="BackgroundImageFix" result="effect1_dropShadow_69_14849"/>
<feBlend mode="normal" in="SourceGraphic" in2="effect1_dropShadow_69_14849" result="shape"/>
</filter>
</defs>
</svg>
